<?xml version="1.0" encoding="UTF-8"?>
<svg id="Layer_1" data-name="Layer 1" xmlns="http://www.w3.org/2000/svg" xmlns:xlink="http://www.w3.org/1999/xlink" viewBox="0 0 1080 1080">
  <defs>
    <style>
      .cls-1 {
        fill: #ca4b9b;
      }

      .cls-2 {
        fill: #de4398;
      }

      .cls-3 {
        fill: url(#New_Gradient_Swatch);
      }

      .cls-4 {
        fill: #701011;
      }

      .cls-5 {
        fill: url(#New_Gradient_Swatch-12);
      }

      .cls-6 {
        fill: url(#New_Gradient_Swatch-15);
      }

      .cls-7 {
        fill: url(#New_Gradient_Swatch-18);
      }

      .cls-8 {
        fill: url(#New_Gradient_Swatch-16);
      }

      .cls-9 {
        fill: url(#New_Gradient_Swatch-14);
      }

      .cls-10 {
        fill: url(#New_Gradient_Swatch-11);
      }

      .cls-11 {
        fill: url(#New_Gradient_Swatch-17);
      }

      .cls-12 {
        fill: url(#New_Gradient_Swatch-13);
      }

      .cls-13 {
        fill: url(#New_Gradient_Swatch-10);
      }

      .cls-14 {
        fill: #e93c76;
      }

      .cls-15 {
        fill: #e73a75;
      }

      .cls-16 {
        fill: #e1a929;
      }

      .cls-17 {
        fill: url(#New_Gradient_Swatch-5);
      }

      .cls-18 {
        fill: url(#New_Gradient_Swatch-7);
      }

      .cls-19 {
        fill: url(#New_Gradient_Swatch-4);
      }

      .cls-20 {
        fill: url(#New_Gradient_Swatch-6);
      }

      .cls-21 {
        fill: url(#New_Gradient_Swatch-9);
      }

      .cls-22 {
        fill: url(#New_Gradient_Swatch-8);
      }

      .cls-23 {
        fill: url(#New_Gradient_Swatch-3);
      }

      .cls-24 {
        fill: url(#New_Gradient_Swatch-2);
      }

      .cls-25 {
        fill: #a72b89;
      }

      .cls-26 {
        fill: #e5ad24;
      }

      .cls-27 {
        fill: none;
        stroke: #e1a929;
        stroke-linejoin: round;
        stroke-width: 6px;
      }
    </style>
    <linearGradient id="New_Gradient_Swatch" data-name="New Gradient Swatch" x1="104.95" y1="878.48" x2="972.06" y2="878.48" gradientUnits="userSpaceOnUse">
      <stop offset="0" stop-color="#971b1e"/>
      <stop offset="1" stop-color="#700f11"/>
    </linearGradient>
    <linearGradient id="New_Gradient_Swatch-2" data-name="New Gradient Swatch" x1="237.77" y1="938.14" x2="841.11" y2="938.14" xlink:href="#New_Gradient_Swatch"/>
    <linearGradient id="New_Gradient_Swatch-3" data-name="New Gradient Swatch" x1="237.77" y1="938.14" x2="841.11" y2="938.14" xlink:href="#New_Gradient_Swatch"/>
    <linearGradient id="New_Gradient_Swatch-4" data-name="New Gradient Swatch" x1="237.77" y1="938.14" x2="841.11" y2="938.14" xlink:href="#New_Gradient_Swatch"/>
    <linearGradient id="New_Gradient_Swatch-5" data-name="New Gradient Swatch" x1="237.77" y1="938.14" x2="841.11" y2="938.14" xlink:href="#New_Gradient_Swatch"/>
    <linearGradient id="New_Gradient_Swatch-6" data-name="New Gradient Swatch" x1="237.77" y1="938.14" x2="841.11" y2="938.14" xlink:href="#New_Gradient_Swatch"/>
    <linearGradient id="New_Gradient_Swatch-7" data-name="New Gradient Swatch" x1="237.77" y1="938.14" x2="841.11" y2="938.14" xlink:href="#New_Gradient_Swatch"/>
    <linearGradient id="New_Gradient_Swatch-8" data-name="New Gradient Swatch" x1="237.77" y1="938.14" x2="841.11" y2="938.14" xlink:href="#New_Gradient_Swatch"/>
    <linearGradient id="New_Gradient_Swatch-9" data-name="New Gradient Swatch" x1="237.77" y1="938.14" x2="841.11" y2="938.14" xlink:href="#New_Gradient_Swatch"/>
    <linearGradient id="New_Gradient_Swatch-10" data-name="New Gradient Swatch" x1="237.77" y1="938.14" x2="841.11" y2="938.14" xlink:href="#New_Gradient_Swatch"/>
    <linearGradient id="New_Gradient_Swatch-11" data-name="New Gradient Swatch" x1="237.77" y1="938.14" x2="841.11" y2="938.14" xlink:href="#New_Gradient_Swatch"/>
    <linearGradient id="New_Gradient_Swatch-12" data-name="New Gradient Swatch" x1="237.77" y1="938.14" x2="841.11" y2="938.14" xlink:href="#New_Gradient_Swatch"/>
    <linearGradient id="New_Gradient_Swatch-13" data-name="New Gradient Swatch" x1="237.77" y1="938.14" x2="841.11" y2="938.14" xlink:href="#New_Gradient_Swatch"/>
    <linearGradient id="New_Gradient_Swatch-14" data-name="New Gradient Swatch" x1="237.77" y1="938.14" x2="841.11" y2="938.14" xlink:href="#New_Gradient_Swatch"/>
    <linearGradient id="New_Gradient_Swatch-15" data-name="New Gradient Swatch" x1="237.77" y1="938.14" x2="841.11" y2="938.14" xlink:href="#New_Gradient_Swatch"/>
    <linearGradient id="New_Gradient_Swatch-16" data-name="New Gradient Swatch" x1="237.77" y1="938.14" x2="841.11" y2="938.14" xlink:href="#New_Gradient_Swatch"/>
    <linearGradient id="New_Gradient_Swatch-17" data-name="New Gradient Swatch" x1="864.06" y1="937.41" x2="972.06" y2="937.41" xlink:href="#New_Gradient_Swatch"/>
    <linearGradient id="New_Gradient_Swatch-18" data-name="New Gradient Swatch" x1="104.95" y1="937.41" x2="212.95" y2="937.41" xlink:href="#New_Gradient_Swatch"/>
  </defs>
  <path class="cls-2" d="M598.19,578.16c19.75,8.53,58.97-7.98,86.08-44.59,2.02-2.73,3.92-5.5,5.69-8.29,18.21-28.58,23.92-59.85,18.24-78.58-11.94,2.13-25.58,7.63-38.76,16.26-1.89,1.24-3.72,2.51-5.5,3.81-7.78,5.69-12.51,14.7-12.49,24.33.02,10.86-2.03,23.27-6.34,35.93-.61,1.8-1.26,3.57-1.94,5.31-10.88,27.88-29.65,46.87-44.98,45.82Z"/>
  <path class="cls-15" d="M739.73,520.16l.11-.02c6.36-1.11,12.19-4.39,16.23-9.43,5.63-7.02,10.83-17.47,14.57-29.87,1.03-3.41,1.95-6.97,2.74-10.64.23-1.06.44-2.11.64-3.16.86-4.5,1.47-8.9,1.83-13.13.47-5.42,1.39-10.8,2.92-16.02l.32-1.08c.81-2.73,1.68-5.4,2.62-7.97-2.08.08-4.32.38-6.69.89-11.16,2.35-25.2,9.27-38.72,19.79-2.32,1.8-4.53,3.64-6.64,5.51-2.51,2.23-4.87,4.49-7.06,6.76-1.73,1.79-2.67,4.18-2.7,6.66-.08,6.82-.81,14.22-2.24,21.85-1.05,5.58-2.4,10.91-4,15.86-3.21,10.03-7.39,18.56-11.96,24.69,13.79-5.18,26.86-8.78,38.03-10.69Z"/>
  <path class="cls-14" d="M785.47,512.86c-10.38,6.25-23.86,11.56-39.19,15.18-2.72.65-5.5,1.24-8.33,1.77-8.37,1.99-17.08,4.76-25.87,8.32-10.72,4.34-20.55,9.43-29.16,14.92-5.39,3.44-10.42,7.4-15.25,11.58-1.5,1.3-3.04,2.59-4.61,3.86-1.88,1.53-3.82,3.04-5.8,4.52-5.13,3.84-10.31,7.32-15.47,10.43,2.45.91,5.15,1.63,8.07,2.16,17.79,3.29,43.66-.32,70.23-11.06,30.6-12.37,53.94-30.9,62.22-47.48,2.48-4.98,3.61-9.79,3.16-14.2Z"/>
  <path class="cls-1" d="M630.87,530.85c7.94-19.13,10.19-40.33,8.08-58.59-19.85,4.34-42.92,19.01-62.14,41.4-1.75,2.04-3.43,4.1-5.04,6.18-3.02,3.89-4.21,8.93-3.16,13.74,1.18,5.37,1.9,10.89,2.08,16.43.39,12.01-1.8,22.79-5.81,31.99,22.9-4.02,53.34-20.66,65.99-51.15Z"/>
  <path class="cls-2" d="M395.73,533.57c27.11,36.61,66.33,53.12,86.08,44.59-15.33,1.05-34.1-17.94-44.98-45.82-.68-1.74-1.33-3.51-1.94-5.31-4.31-12.66-6.36-25.07-6.34-35.93.02-9.63-4.71-18.65-12.49-24.33-1.78-1.3-3.61-2.57-5.5-3.81-13.18-8.63-26.82-14.13-38.76-16.26-5.68,18.73.03,50,18.24,78.58,1.77,2.79,3.67,5.56,5.69,8.29Z"/>
  <path class="cls-15" d="M301.22,437.89c1.53,5.22,2.45,10.6,2.92,16.02.37,4.23.97,8.63,1.83,13.13.2,1.05.41,2.1.64,3.16.79,3.67,1.71,7.23,2.74,10.64,3.74,12.41,8.94,22.86,14.57,29.87,4.04,5.03,9.87,8.31,16.23,9.43l.11.02c11.17,1.91,24.24,5.51,38.03,10.69-4.57-6.13-8.75-14.66-11.96-24.69-1.6-4.95-2.95-10.28-4-15.86-1.43-7.63-2.16-15.02-2.24-21.85-.03-2.49-.97-4.87-2.7-6.66-2.19-2.27-4.55-4.53-7.06-6.76-2.11-1.87-4.32-3.71-6.64-5.51-13.52-10.52-27.56-17.44-38.72-19.79-2.37-.51-4.61-.81-6.69-.89.94,2.57,1.81,5.24,2.62,7.97l.32,1.08Z"/>
  <path class="cls-15" d="M438.21,583.44c-5.16-3.11-10.34-6.59-15.47-10.43-1.98-1.48-3.92-2.99-5.8-4.52-1.58-1.28-3.11-2.56-4.61-3.86-4.83-4.18-9.86-8.14-15.25-11.58-8.6-5.5-18.43-10.59-29.16-14.92-8.79-3.56-17.5-6.33-25.87-8.32-2.83-.53-5.61-1.12-8.33-1.77-15.33-3.62-28.81-8.93-39.19-15.18-.45,4.41.68,9.22,3.16,14.2,8.28,16.58,31.62,35.11,62.22,47.48,26.57,10.74,52.44,14.35,70.23,11.06,2.92-.53,5.62-1.25,8.07-2.16Z"/>
  <path class="cls-1" d="M515.12,582c-4.01-9.2-6.2-19.98-5.81-31.99.18-5.54.9-11.06,2.08-16.43,1.06-4.81-.14-9.85-3.16-13.74-1.61-2.08-3.29-4.14-5.04-6.18-19.22-22.39-42.29-37.06-62.14-41.4-2.11,18.26.14,39.46,8.08,58.59,12.65,30.49,43.09,47.13,65.99,51.15Z"/>
  <path class="cls-25" d="M540,585.4s21.24-.58,19.89-31.19c0,0-.31-26-19.89-45.83-19.58,19.83-19.89,45.83-19.89,45.83-1.35,30.62,19.89,31.19,19.89,31.19Z"/>
  <path class="cls-25" d="M518.24,596.5c-10.51-4.67-23.52-7.25-37.55-6.85-27.15.78-49.9,12.48-57.71,28.05,3.59,2.83,7.81,5.32,12.52,7.39,21.34,9.36,46.26,6.77,65.23-6.76.11-.08.21-.15.32-.23,2.8-2.02,5.32-4.39,7.69-6.9.84-.89,1.73-1.77,2.66-2.62,3.61-3.34,7.88-6.41,12.7-9.1-1.85-1.07-3.81-2.06-5.86-2.97Z"/>
  <path class="cls-25" d="M599.31,589.65c-14.03-.4-27.04,2.18-37.55,6.85-2.05.91-4.01,1.9-5.86,2.97,4.82,2.69,9.09,5.76,12.7,9.1.93.85,1.82,1.73,2.66,2.62,2.37,2.51,4.89,4.88,7.69,6.9.11.08.21.15.32.23,18.96,13.54,43.89,16.12,65.23,6.76,4.72-2.07,8.94-4.56,12.52-7.39-7.81-15.57-30.56-27.27-57.71-28.05Z"/>
  <path class="cls-25" d="M539.81,601.77s-19.12,10.05-22.47,18.7c0,0-7.26,11.72,0,20.09,0,0,6.42,7.26,12.28,10.88,0,0,4.52,2.18,5.3,7.51v146.15c0,2.7,2.19,4.89,4.89,4.89h0c2.7,0,4.89-2.19,4.89-4.89v-146.15c.78-5.33,5.3-7.51,5.3-7.51,5.86-3.63,12.28-10.88,12.28-10.88,7.26-8.37,0-20.09,0-20.09-3.35-8.65-22.47-18.7-22.47-18.7Z"/>
  <g>
    <path class="cls-16" d="M546.44,353.68c0-3.48-2.88-6.3-6.44-6.3s-6.44,2.82-6.44,6.3,2.88,6.3,6.44,6.3,6.44-2.82,6.44-6.3h0Z"/>
    <polygon class="cls-27" points="541.86 222.61 404.93 401.96 675.07 401.96 541.86 222.61"/>
    <polygon class="cls-27" points="540 264.65 441.45 437.76 638.55 437.76 540 264.65"/>
    <polygon class="cls-27" points="540 296.49 498.47 376.44 581.53 376.44 540 296.49"/>
    <polygon class="cls-27" points="539.5 492.07 675.07 320.47 404.93 320.47 539.5 492.07"/>
    <polygon class="cls-27" points="540 465.37 638.55 287.51 441.45 287.51 540 465.37"/>
    <polygon class="cls-27" points="540.13 418.19 589.3 338.23 490.7 338.23 540.13 418.19"/>
    <polygon class="cls-27" points="540 389.3 614.23 253.86 465.77 253.86 540 389.3"/>
  </g>
  <g>
    <path class="cls-26" d="M691.27,173.44c-1.85,1.38-21.39,22.4-22.07,23.88-4.98,10.73,5.24,8.58,11.72,2.68,2.44-2.22,18.53-21.79,18.69-23.28.72-6.52-3.73-6.73-8.34-3.28Z"/>
    <path class="cls-26" d="M378.62,172.46c-1,.18-3.96,3.17-4.14,4.23-.57,3.22,20.62,24.92,24.36,27.73,4.6,3.46,9.06,3.22,8.34-3.29-.32-2.91-26.4-29.06-28.56-28.67Z"/>
    <path class="cls-26" d="M458.54,126.68c-4-6.36-10.98-3.72-9.57-.77l18.08,37.73c2.8-1.25,6.5-2.29,6.03-5.87-.44-3.28-12.05-27.13-14.54-31.09Z"/>
    <path class="cls-26" d="M326.8,254.07c-.22,3.78,20.65,12.03,24.35,12.03,6.66,0,8.88-4.7,3.94-8.43-2.44-1.84-26.73-10.95-28.28-3.6Z"/>
    <path class="cls-26" d="M752.91,260.76c3.74-13.8-24.55,3.7-27.68,7.63-2.25,5.22,2.13,6.09,6.56,4.92,4.08-1.6,20.21-9.23,21.11-12.55Z"/>
    <path class="cls-26" d="M614.95,128.13c-2.38,3.63-10.5,22.96-11.41,27.18-1.07,4.96.83,5.58,5.1,4.81,2.34-.42,2.99,0,4.58-2.51,2.07-3.27,11.39-25.94,11.02-28.33-.81-5.2-6.14-5.94-9.28-1.15Z"/>
    <path class="cls-26" d="M343.26,334.03c-4.16-.8-25.29-.81-29.49-.05-3.18.58-3.44,1.09-4.14,4.12-1.29,5.63,1.7,3.43,3.32,4.09,5.16,2.09,28.11,2.98,32.79.8,5.65-2.63,2.84-7.94-2.48-8.96Z"/>
    <path class="cls-26" d="M770.27,337.27c-1.14-1.51-33.41-5.1-34.45,3.26,1.42,1.88,26.46,2.34,30.35,1.63,2.46-.45,5.67-2.83,4.11-4.89Z"/>
    <path class="cls-26" d="M539.38,106.97c-1.73,1.55-3.04,41.08-1.92,46.22,1.16.97,6.48-1.06,6.75-1.6.91-1.8,3.87-37.43,3.26-40.25-.85-3.98-6.85-5.49-8.09-4.38Z"/>
    <path class="cls-26" d="M539.51,184.08c-94.77,0-171.6,76.83-171.6,171.6,0,31.06,8.26,60.2,22.7,85.34,3.68,1.46,9.58,3.95,15.95,7.19-18.29-26.23-29.02-58.13-29.02-92.53,0-89.45,72.52-161.97,161.97-161.97s161.96,72.52,161.96,161.97c0,34.4-10.73,66.3-29.02,92.53,6.37-3.24,12.27-5.73,15.96-7.19,14.44-25.14,22.69-54.28,22.69-85.34,0-94.77-76.82-171.6-171.59-171.6Z"/>
  </g>
  <g>
    <path class="cls-4" d="M784.05,577.27c-6.83-10.59-22.75,2.51-23.43,3.07h-.04c-9.48-11.58-24.53,13.32-24.53,13.33h0c-18.84-.27-29.12,33.36-29.56,34.84h-.04c-10.07-18.3-39.55,10.6-39.6,10.65h0c-16.43,13.27-31.11,20.5-37.32,23.25-2.31,1.24-4.61,2.47-6.92,3.71-36.48,23.55-45.62,39.76-45.62,39.76h0c-14.24,19-13.12,40.72-13.12,40.72v73.68c0,.2.01.4.04.59.29,2.23,2.2,3.96,4.52,3.96,2.52,0,4.56-2.04,4.56-4.55v-6.8l.09-3.48v-58.93s0,0,0,0c0,0-.84-14.51,3.63-24h0s5.31-22.33,37.11-44.65c0,0,15.63-10.05,22.89-13.68,0,0,26.79-14.51,34.6-22.32h0s16.47-12.56,16.47-12.56c0,0,5.58-5.03,10.04-1.4,0,0,9.77,3.91-8.65,25.12,0,0-18.42,19.53-37.39,31.81,0,0,0,0,0,0-.02.02-14.23,10.62-17.03,23.72,0,0-1.39,6.7,4.19,5.03,0,0,0,0,0,0,0,0,1.68-1.68,3.35-4.19h0s7.81-9.21,22.33-14.51c0,0,32.09-12.28,49.39-27.35,0,0,21.49-18.7,31.81-48.84,0,0,13.96-37.57,27.91-41.25,0,0,4.58-1.29,2.74,3.19l-1.82,4.77-19.34,60.08s-4.18,12-16.46,27.35l-30.98,37.96s-4.97,5.71-17.32,13.69c-4.26,2.76-8.68,5.26-13.21,7.57-8.3,4.24-30.02,15.78-47.9,29.25,0,0,0,0,0,0,0,0-18.97,16.14-18.97,30.14v12c0,.87.26,1.67.71,2.34.01,0,.01.01.01.01.81,1.18,2.21,1.94,3.78,1.82,2.23-.17,3.87-2.17,3.87-4.4v-7.3s0,0,0,0c-1.4-12.28,8.93-21.2,8.93-21.21,0,0,0,0,0,0,12.56-15.62,54.7-35.44,54.7-35.44,20.09-10.32,31.39-22.88,31.39-22.88,17.04-17.98,27.96-32.88,32.37-39.23.87-1.25,1.68-2.52,2.45-3.83,2.8-4.78,6.78-10.6,10.43-17.37,4.45-8.26,7.2-16.87,10.21-25.75l12.83-37.9,1.91-5.22c4.23-11.16,0-14.35,0-14.35ZM699.12,669.86s-2.23,3.35-6.7,6.88c0,0-5.95,4.84-21.02,10.42,0,0-3.72,1.49-1.86-1.12,0,0,21.02-13.77,33.49-32.74,0,0,8.93-13.58,15.44-31.26,0,0,6.33-17.49,12.84-18.05,0,0-6.51,29.4-32.19,65.86ZM734.97,628.64c-3.88,8.07-10.72,20.96-15.76,23.36,0,0,10.05-15.07,13.58-26.98,0,0,10.8-38.34,22.14-38.25,0,0-10.11,17.9-15.72,32.08-1.31,3.31-2.7,6.58-4.24,9.79Z"/>
    <path class="cls-4" d="M295.95,577.27c6.83-10.59,22.75,2.51,23.43,3.07h.04c9.48-11.58,24.53,13.32,24.53,13.33h0c18.84-.27,29.12,33.36,29.56,34.84h.04c10.07-18.3,39.55,10.6,39.6,10.65h0c16.43,13.27,31.11,20.5,37.32,23.25,2.31,1.24,4.61,2.47,6.92,3.71,36.48,23.55,45.62,39.76,45.62,39.76h0c14.24,19,13.12,40.72,13.12,40.72v73.68c0,.2-.01.4-.04.59-.29,2.23-2.2,3.96-4.52,3.96-2.52,0-4.56-2.04-4.56-4.55v-6.8l-.09-3.48v-58.93s0,0,0,0c0,0,.84-14.51-3.63-24h0s-5.31-22.33-37.11-44.65c0,0-15.63-10.05-22.89-13.68,0,0-26.79-14.51-34.6-22.32h0s-16.47-12.56-16.47-12.56c0,0-5.58-5.03-10.04-1.4,0,0-9.77,3.91,8.65,25.12,0,0,18.42,19.53,37.39,31.81,0,0,0,0,0,0,.02.02,14.23,10.62,17.03,23.72,0,0,1.39,6.7-4.19,5.03,0,0,0,0,0,0,0,0-1.68-1.68-3.35-4.19h0s-7.81-9.21-22.33-14.51c0,0-32.09-12.28-49.39-27.35,0,0-21.49-18.7-31.81-48.84,0,0-13.96-37.57-27.91-41.25,0,0-4.58-1.29-2.74,3.19l1.82,4.77,19.34,60.08s4.18,12,16.46,27.35l30.98,37.96s4.97,5.71,17.32,13.69c4.26,2.76,8.68,5.26,13.21,7.57,8.3,4.24,30.02,15.78,47.9,29.25,0,0,0,0,0,0,0,0,18.97,16.14,18.97,30.14v12c0,.87-.26,1.67-.71,2.34-.01,0-.01.01-.01.01-.81,1.18-2.21,1.94-3.78,1.82-2.23-.17-3.87-2.17-3.87-4.4v-7.3s0,0,0,0c1.4-12.28-8.93-21.2-8.93-21.21,0,0,0,0,0,0-12.56-15.62-54.7-35.44-54.7-35.44-20.09-10.32-31.39-22.88-31.39-22.88-17.04-17.98-27.96-32.88-32.37-39.23-.87-1.25-1.68-2.52-2.45-3.83-2.8-4.78-6.78-10.6-10.43-17.37-4.45-8.26-7.2-16.87-10.21-25.75l-12.83-37.9-1.91-5.22c-4.23-11.16,0-14.35,0-14.35ZM380.88,669.86s2.23,3.35,6.7,6.88c0,0,5.95,4.84,21.02,10.42,0,0,3.72,1.49,1.86-1.12,0,0-21.02-13.77-33.49-32.74,0,0-8.93-13.58-15.44-31.26,0,0-6.33-17.49-12.84-18.05,0,0,6.51,29.4,32.19,65.86ZM345.03,628.64c3.88,8.07,10.72,20.96,15.76,23.36,0,0-10.05-15.07-13.58-26.98,0,0-10.8-38.34-22.14-38.25,0,0,10.11,17.9,15.72,32.08,1.31,3.31,2.7,6.58,4.24,9.79Z"/>
  </g>
  <g>
    <g>
      <path d="M135.78,893.85h-15.6l-2.37,7.38h-12.86l16.04-45.24h14.11l15.98,45.24h-12.92l-2.37-7.38ZM132.72,884.23l-4.74-14.63-4.68,14.63h9.42Z"/>
      <path d="M197.88,855.99l-15.17,45.24h-15.67l-15.23-45.24h13.11l9.99,32.66,9.92-32.66h13.04Z"/>
      <path d="M231.24,858.84c3.47,1.9,6.15,4.57,8.02,7.99,1.87,3.42,2.81,7.34,2.81,11.74s-.95,8.26-2.84,11.68c-1.89,3.42-4.58,6.11-8.05,8.05-3.47,1.95-7.5,2.92-12.08,2.92h-17.41v-45.24h17.41c4.62,0,8.66.95,12.14,2.86ZM226.59,887.11c2.04-2.01,3.06-4.86,3.06-8.54s-1.02-6.6-3.06-8.63c-2.04-2.03-4.85-3.05-8.43-3.05h-4.24v23.23h4.24c3.58,0,6.39-1,8.43-3.02Z"/>
      <path d="M286.95,855.99v45.24h-12.23v-18.16h-14.92v18.16h-12.23v-45.24h12.23v17.01h14.92v-17.01h12.23Z"/>
      <path d="M306.17,866.06v7.38h14.04v9.56h-14.04v8.15h15.92v10.08h-28.15v-45.24h28.15v10.08h-15.92Z"/>
      <path d="M332.13,897.93c-3.29-2.5-5.06-6.09-5.31-10.75h13.04c.12,1.58.58,2.74,1.37,3.46.79.73,1.81,1.09,3.06,1.09,1.12,0,2.05-.29,2.78-.87.73-.58,1.09-1.38,1.09-2.41,0-1.33-.6-2.35-1.81-3.08-1.21-.73-3.16-1.54-5.87-2.44-2.87-.98-5.19-1.94-6.96-2.86-1.77-.92-3.31-2.27-4.62-4.04-1.31-1.77-1.97-4.1-1.97-6.96s.71-5.4,2.12-7.48c1.41-2.08,3.37-3.65,5.87-4.72,2.5-1.07,5.33-1.6,8.49-1.6,5.12,0,9.21,1.23,12.26,3.69,3.06,2.46,4.69,5.91,4.9,10.36h-13.29c-.04-1.37-.45-2.4-1.22-3.08-.77-.68-1.76-1.03-2.96-1.03-.92,0-1.66.28-2.25.83-.58.56-.87,1.35-.87,2.37,0,.86.32,1.59.97,2.21.64.62,1.45,1.16,2.4,1.6.96.45,2.37,1.02,4.24,1.7,2.79.98,5.09,1.96,6.9,2.92,1.81.96,3.37,2.31,4.68,4.04,1.31,1.73,1.97,3.92,1.97,6.58s-.66,5.11-1.97,7.25c-1.31,2.14-3.2,3.83-5.68,5.07-2.48,1.24-5.4,1.86-8.77,1.86-5.12,0-9.32-1.25-12.61-3.75Z"/>
      <path d="M406.22,855.99v45.24h-12.23v-18.16h-14.92v18.16h-12.23v-45.24h12.23v17.01h14.92v-17.01h12.23Z"/>
      <path d="M441.04,893.85h-15.6l-2.37,7.38h-12.86l16.04-45.24h14.11l15.98,45.24h-12.92l-2.37-7.38ZM437.99,884.23l-4.74-14.63-4.68,14.63h9.42Z"/>
      <path d="M501.09,901.23h-12.23l-16.29-25.28v25.28h-12.23v-45.24h12.23l16.29,25.61v-25.61h12.23v45.24Z"/>
      <path d="M535.91,893.85h-15.6l-2.37,7.38h-12.86l16.04-45.24h14.11l15.98,45.24h-12.92l-2.37-7.38ZM532.85,884.23l-4.74-14.63-4.68,14.63h9.42Z"/>
      <path d="M595.95,901.23h-12.23l-16.29-25.28v25.28h-12.23v-45.24h12.23l16.29,25.61v-25.61h12.23v45.24Z"/>
      <path d="M632.5,858.84c3.47,1.9,6.15,4.57,8.02,7.99,1.87,3.42,2.81,7.34,2.81,11.74s-.95,8.26-2.84,11.68c-1.89,3.42-4.58,6.11-8.05,8.05-3.47,1.95-7.5,2.92-12.08,2.92h-17.41v-45.24h17.41c4.62,0,8.67.95,12.14,2.86ZM627.85,887.11c2.04-2.01,3.06-4.86,3.06-8.54s-1.02-6.6-3.06-8.63c-2.04-2.03-4.85-3.05-8.43-3.05h-4.24v23.23h4.24c3.58,0,6.39-1,8.43-3.02Z"/>
      <path d="M676.9,870.88c-.71-1.2-1.67-2.12-2.9-2.76s-2.67-.96-4.34-.96c-3.08,0-5.5,1.03-7.27,3.08-1.77,2.05-2.65,4.81-2.65,8.28,0,3.89.95,6.86,2.84,8.89,1.89,2.03,4.65,3.05,8.27,3.05,4.29,0,7.34-1.99,9.17-5.97h-12.3v-9.05h22.84v12.19c-.96,2.4-2.36,4.64-4.21,6.74-1.85,2.1-4.19,3.82-7.02,5.17-2.83,1.35-6.05,2.02-9.67,2.02-4.41,0-8.31-.97-11.7-2.92-3.39-1.95-6.01-4.66-7.86-8.15-1.85-3.49-2.78-7.48-2.78-11.97s.93-8.42,2.78-11.9c1.85-3.49,4.46-6.2,7.83-8.15,3.37-1.95,7.26-2.92,11.67-2.92,5.53,0,10.11,1.37,13.73,4.11s5.87,6.48,6.74,11.23h-13.17Z"/>
      <path d="M759.35,855.99v45.24h-12.23v-24.96l-8.3,24.96h-10.24l-8.36-25.16v25.16h-12.23v-45.24h14.79l11.05,29.39,10.8-29.39h14.73Z"/>
      <path d="M778.58,855.99v45.24h-12.23v-45.24h12.23Z"/>
      <path d="M789.56,897.93c-3.29-2.5-5.05-6.09-5.3-10.75h13.04c.12,1.58.58,2.74,1.37,3.46.79.73,1.81,1.09,3.06,1.09,1.12,0,2.05-.29,2.78-.87.73-.58,1.09-1.38,1.09-2.41,0-1.33-.6-2.35-1.81-3.08s-3.16-1.54-5.87-2.44c-2.87-.98-5.19-1.94-6.96-2.86-1.77-.92-3.31-2.27-4.62-4.04-1.31-1.77-1.97-4.1-1.97-6.96s.71-5.4,2.12-7.48c1.41-2.08,3.37-3.65,5.87-4.72,2.5-1.07,5.33-1.6,8.49-1.6,5.12,0,9.21,1.23,12.26,3.69s4.69,5.91,4.9,10.36h-13.29c-.04-1.37-.45-2.4-1.22-3.08-.77-.68-1.76-1.03-2.96-1.03-.92,0-1.67.28-2.25.83-.58.56-.87,1.35-.87,2.37,0,.86.32,1.59.97,2.21.64.62,1.45,1.16,2.4,1.6.96.45,2.37,1.02,4.24,1.7,2.79.98,5.09,1.96,6.9,2.92,1.81.96,3.37,2.31,4.68,4.04,1.31,1.73,1.97,3.92,1.97,6.58s-.66,5.11-1.97,7.25c-1.31,2.14-3.2,3.83-5.68,5.07-2.48,1.24-5.4,1.86-8.77,1.86-5.12,0-9.32-1.25-12.61-3.75Z"/>
      <path d="M828.25,897.93c-3.29-2.5-5.05-6.09-5.3-10.75h13.04c.12,1.58.58,2.74,1.37,3.46.79.73,1.81,1.09,3.06,1.09,1.12,0,2.05-.29,2.78-.87.73-.58,1.09-1.38,1.09-2.41,0-1.33-.6-2.35-1.81-3.08s-3.16-1.54-5.87-2.44c-2.87-.98-5.19-1.94-6.96-2.86-1.77-.92-3.31-2.27-4.62-4.04-1.31-1.77-1.97-4.1-1.97-6.96s.71-5.4,2.12-7.48c1.41-2.08,3.37-3.65,5.87-4.72,2.5-1.07,5.33-1.6,8.49-1.6,5.12,0,9.21,1.23,12.26,3.69s4.69,5.91,4.9,10.36h-13.29c-.04-1.37-.45-2.4-1.22-3.08-.77-.68-1.76-1.03-2.96-1.03-.92,0-1.67.28-2.25.83-.58.56-.87,1.35-.87,2.37,0,.86.32,1.59.97,2.21.64.62,1.45,1.16,2.4,1.6.96.45,2.37,1.02,4.24,1.7,2.79.98,5.09,1.96,6.9,2.92,1.81.96,3.37,2.31,4.68,4.04,1.31,1.73,1.97,3.92,1.97,6.58s-.66,5.11-1.97,7.25c-1.31,2.14-3.2,3.83-5.68,5.07-2.48,1.24-5.4,1.86-8.77,1.86-5.12,0-9.32-1.25-12.61-3.75Z"/>
      <path d="M875.19,855.99v45.24h-12.23v-45.24h12.23Z"/>
      <path d="M891.92,898.7c-3.45-1.99-6.19-4.75-8.21-8.28-2.02-3.53-3.03-7.52-3.03-11.97s1.01-8.44,3.03-11.97c2.02-3.53,4.75-6.28,8.21-8.25,3.45-1.97,7.24-2.95,11.36-2.95s7.96.98,11.39,2.95,6.15,4.72,8.15,8.25c2,3.53,3,7.52,3,11.97s-1,8.44-3,11.97c-2,3.53-4.72,6.29-8.18,8.28-3.45,1.99-7.24,2.98-11.36,2.98s-7.91-1-11.36-2.98ZM910.67,886.86c1.81-2.1,2.71-4.9,2.71-8.41s-.91-6.43-2.71-8.5c-1.81-2.08-4.28-3.11-7.4-3.11s-5.64,1.04-7.43,3.11c-1.79,2.08-2.68,4.91-2.68,8.5s.89,6.36,2.68,8.44c1.79,2.08,4.26,3.11,7.43,3.11s5.59-1.05,7.4-3.14Z"/>
      <path d="M972.06,901.23h-12.23l-16.29-25.28v25.28h-12.23v-45.24h12.23l16.29,25.61v-25.61h12.23v45.24Z"/>
    </g>
    <g>
      <path class="cls-3" d="M135.78,893.85h-15.6l-2.37,7.38h-12.86l16.04-45.24h14.11l15.98,45.24h-12.92l-2.37-7.38ZM132.72,884.23l-4.74-14.63-4.68,14.63h9.42Z"/>
      <path class="cls-3" d="M197.88,855.99l-15.17,45.24h-15.67l-15.23-45.24h13.11l9.99,32.66,9.92-32.66h13.04Z"/>
      <path class="cls-3" d="M231.24,858.84c3.47,1.9,6.15,4.57,8.02,7.99,1.87,3.42,2.81,7.34,2.81,11.74s-.95,8.26-2.84,11.68c-1.89,3.42-4.58,6.11-8.05,8.05-3.47,1.95-7.5,2.92-12.08,2.92h-17.41v-45.24h17.41c4.62,0,8.66.95,12.14,2.86ZM226.59,887.11c2.04-2.01,3.06-4.86,3.06-8.54s-1.02-6.6-3.06-8.63c-2.04-2.03-4.85-3.05-8.43-3.05h-4.24v23.23h4.24c3.58,0,6.39-1,8.43-3.02Z"/>
      <path class="cls-3" d="M286.95,855.99v45.24h-12.23v-18.16h-14.92v18.16h-12.23v-45.24h12.23v17.01h14.92v-17.01h12.23Z"/>
      <path class="cls-3" d="M306.17,866.06v7.38h14.04v9.56h-14.04v8.15h15.92v10.08h-28.15v-45.24h28.15v10.08h-15.92Z"/>
      <path class="cls-3" d="M332.13,897.93c-3.29-2.5-5.06-6.09-5.31-10.75h13.04c.12,1.58.58,2.74,1.37,3.46.79.73,1.81,1.09,3.06,1.09,1.12,0,2.05-.29,2.78-.87.73-.58,1.09-1.38,1.09-2.41,0-1.33-.6-2.35-1.81-3.08-1.21-.73-3.16-1.54-5.87-2.44-2.87-.98-5.19-1.94-6.96-2.86-1.77-.92-3.31-2.27-4.62-4.04-1.31-1.77-1.97-4.1-1.97-6.96s.71-5.4,2.12-7.48c1.41-2.08,3.37-3.65,5.87-4.72,2.5-1.07,5.33-1.6,8.49-1.6,5.12,0,9.21,1.23,12.26,3.69,3.06,2.46,4.69,5.91,4.9,10.36h-13.29c-.04-1.37-.45-2.4-1.22-3.08-.77-.68-1.76-1.03-2.96-1.03-.92,0-1.66.28-2.25.83-.58.56-.87,1.35-.87,2.37,0,.86.32,1.59.97,2.21.64.62,1.45,1.16,2.4,1.6.96.45,2.37,1.02,4.24,1.7,2.79.98,5.09,1.96,6.9,2.92,1.81.96,3.37,2.31,4.68,4.04,1.31,1.73,1.97,3.92,1.97,6.58s-.66,5.11-1.97,7.25c-1.31,2.14-3.2,3.83-5.68,5.07-2.48,1.24-5.4,1.86-8.77,1.86-5.12,0-9.32-1.25-12.61-3.75Z"/>
      <path class="cls-3" d="M406.22,855.99v45.24h-12.23v-18.16h-14.92v18.16h-12.23v-45.24h12.23v17.01h14.92v-17.01h12.23Z"/>
      <path class="cls-3" d="M441.04,893.85h-15.6l-2.37,7.38h-12.86l16.04-45.24h14.11l15.98,45.24h-12.92l-2.37-7.38ZM437.99,884.23l-4.74-14.63-4.68,14.63h9.42Z"/>
      <path class="cls-3" d="M501.09,901.23h-12.23l-16.29-25.28v25.28h-12.23v-45.24h12.23l16.29,25.61v-25.61h12.23v45.24Z"/>
      <path class="cls-3" d="M535.91,893.85h-15.6l-2.37,7.38h-12.86l16.04-45.24h14.11l15.98,45.24h-12.92l-2.37-7.38ZM532.85,884.23l-4.74-14.63-4.68,14.63h9.42Z"/>
      <path class="cls-3" d="M595.95,901.23h-12.23l-16.29-25.28v25.28h-12.23v-45.24h12.23l16.29,25.61v-25.61h12.23v45.24Z"/>
      <path class="cls-3" d="M632.5,858.84c3.47,1.9,6.15,4.57,8.02,7.99,1.87,3.42,2.81,7.34,2.81,11.74s-.95,8.26-2.84,11.68c-1.89,3.42-4.58,6.11-8.05,8.05-3.47,1.95-7.5,2.92-12.08,2.92h-17.41v-45.24h17.41c4.62,0,8.67.95,12.14,2.86ZM627.85,887.11c2.04-2.01,3.06-4.86,3.06-8.54s-1.02-6.6-3.06-8.63c-2.04-2.03-4.85-3.05-8.43-3.05h-4.24v23.23h4.24c3.58,0,6.39-1,8.43-3.02Z"/>
      <path class="cls-3" d="M676.9,870.88c-.71-1.2-1.67-2.12-2.9-2.76s-2.67-.96-4.34-.96c-3.08,0-5.5,1.03-7.27,3.08-1.77,2.05-2.65,4.81-2.65,8.28,0,3.89.95,6.86,2.84,8.89,1.89,2.03,4.65,3.05,8.27,3.05,4.29,0,7.34-1.99,9.17-5.97h-12.3v-9.05h22.84v12.19c-.96,2.4-2.36,4.64-4.21,6.74-1.85,2.1-4.19,3.82-7.02,5.17-2.83,1.35-6.05,2.02-9.67,2.02-4.41,0-8.31-.97-11.7-2.92-3.39-1.95-6.01-4.66-7.86-8.15-1.85-3.49-2.78-7.48-2.78-11.97s.93-8.42,2.78-11.9c1.85-3.49,4.46-6.2,7.83-8.15,3.37-1.95,7.26-2.92,11.67-2.92,5.53,0,10.11,1.37,13.73,4.11s5.87,6.48,6.74,11.23h-13.17Z"/>
      <path class="cls-3" d="M759.35,855.99v45.24h-12.23v-24.96l-8.3,24.96h-10.24l-8.36-25.16v25.16h-12.23v-45.24h14.79l11.05,29.39,10.8-29.39h14.73Z"/>
      <path class="cls-3" d="M778.58,855.99v45.24h-12.23v-45.24h12.23Z"/>
      <path class="cls-3" d="M789.56,897.93c-3.29-2.5-5.05-6.09-5.3-10.75h13.04c.12,1.58.58,2.74,1.37,3.46.79.73,1.81,1.09,3.06,1.09,1.12,0,2.05-.29,2.78-.87.73-.58,1.09-1.38,1.09-2.41,0-1.33-.6-2.35-1.81-3.08s-3.16-1.54-5.87-2.44c-2.87-.98-5.19-1.94-6.96-2.86-1.77-.92-3.31-2.27-4.62-4.04-1.31-1.77-1.97-4.1-1.97-6.96s.71-5.4,2.12-7.48c1.41-2.08,3.37-3.65,5.87-4.72,2.5-1.07,5.33-1.6,8.49-1.6,5.12,0,9.21,1.23,12.26,3.69s4.69,5.91,4.9,10.36h-13.29c-.04-1.37-.45-2.4-1.22-3.08-.77-.68-1.76-1.03-2.96-1.03-.92,0-1.67.28-2.25.83-.58.56-.87,1.35-.87,2.37,0,.86.32,1.59.97,2.21.64.62,1.45,1.16,2.4,1.6.96.45,2.37,1.02,4.24,1.7,2.79.98,5.09,1.96,6.9,2.92,1.81.96,3.37,2.31,4.68,4.04,1.31,1.73,1.97,3.92,1.97,6.58s-.66,5.11-1.97,7.25c-1.31,2.14-3.2,3.83-5.68,5.07-2.48,1.24-5.4,1.86-8.77,1.86-5.12,0-9.32-1.25-12.61-3.75Z"/>
      <path class="cls-3" d="M828.25,897.93c-3.29-2.5-5.05-6.09-5.3-10.75h13.04c.12,1.58.58,2.74,1.37,3.46.79.73,1.81,1.09,3.06,1.09,1.12,0,2.05-.29,2.78-.87.73-.58,1.09-1.38,1.09-2.41,0-1.33-.6-2.35-1.81-3.08s-3.16-1.54-5.87-2.44c-2.87-.98-5.19-1.94-6.96-2.86-1.77-.92-3.31-2.27-4.62-4.04-1.31-1.77-1.97-4.1-1.97-6.96s.71-5.4,2.12-7.48c1.41-2.08,3.37-3.65,5.87-4.72,2.5-1.07,5.33-1.6,8.49-1.6,5.12,0,9.21,1.23,12.26,3.69s4.69,5.91,4.9,10.36h-13.29c-.04-1.37-.45-2.4-1.22-3.08-.77-.68-1.76-1.03-2.96-1.03-.92,0-1.67.28-2.25.83-.58.56-.87,1.35-.87,2.37,0,.86.32,1.59.97,2.21.64.62,1.45,1.16,2.4,1.6.96.45,2.37,1.02,4.24,1.7,2.79.98,5.09,1.96,6.9,2.92,1.81.96,3.37,2.31,4.68,4.04,1.31,1.73,1.97,3.92,1.97,6.58s-.66,5.11-1.97,7.25c-1.31,2.14-3.2,3.83-5.68,5.07-2.48,1.24-5.4,1.86-8.77,1.86-5.12,0-9.32-1.25-12.61-3.75Z"/>
      <path class="cls-3" d="M875.19,855.99v45.24h-12.23v-45.24h12.23Z"/>
      <path class="cls-3" d="M891.92,898.7c-3.45-1.99-6.19-4.75-8.21-8.28-2.02-3.53-3.03-7.52-3.03-11.97s1.01-8.44,3.03-11.97c2.02-3.53,4.75-6.28,8.21-8.25,3.45-1.97,7.24-2.95,11.36-2.95s7.96.98,11.39,2.95,6.15,4.72,8.15,8.25c2,3.53,3,7.52,3,11.97s-1,8.44-3,11.97c-2,3.53-4.72,6.29-8.18,8.28-3.45,1.99-7.24,2.98-11.36,2.98s-7.91-1-11.36-2.98ZM910.67,886.86c1.81-2.1,2.71-4.9,2.71-8.41s-.91-6.43-2.71-8.5c-1.81-2.08-4.28-3.11-7.4-3.11s-5.64,1.04-7.43,3.11c-1.79,2.08-2.68,4.91-2.68,8.5s.89,6.36,2.68,8.44c1.79,2.08,4.26,3.11,7.43,3.11s5.59-1.05,7.4-3.14Z"/>
      <path class="cls-3" d="M972.06,901.23h-12.23l-16.29-25.28v25.28h-12.23v-45.24h12.23l16.29,25.61v-25.61h12.23v45.24Z"/>
    </g>
  </g>
  <g>
    <g>
      <path d="M255.64,925.01v3.52h-6.82v22.81h-4.2v-22.81h-6.85v-3.52h17.87Z"/>
      <path d="M282.41,949.88c-2-1.15-3.59-2.75-4.75-4.81-1.17-2.06-1.75-4.38-1.75-6.95s.58-4.89,1.75-6.93c1.17-2.05,2.75-3.64,4.75-4.79,2-1.15,4.19-1.72,6.58-1.72s4.61.57,6.61,1.72c2,1.15,3.58,2.75,4.73,4.79,1.15,2.05,1.73,4.36,1.73,6.93s-.58,4.89-1.73,6.95c-1.15,2.06-2.73,3.66-4.73,4.81-2,1.15-4.21,1.72-6.61,1.72s-4.58-.57-6.58-1.72ZM293.52,946.66c1.33-.8,2.36-1.93,3.11-3.41.75-1.48,1.12-3.19,1.12-5.13s-.37-3.65-1.12-5.11c-.75-1.46-1.79-2.59-3.11-3.37-1.33-.78-2.84-1.17-4.53-1.17s-3.21.39-4.53,1.17c-1.33.78-2.36,1.91-3.11,3.37-.75,1.46-1.12,3.17-1.12,5.11s.37,3.66,1.12,5.13c.75,1.48,1.79,2.61,3.11,3.41,1.33.8,2.84,1.19,4.53,1.19s3.21-.4,4.53-1.19Z"/>
      <path d="M356.97,925.01l-7.59,26.33h-4.75l-5.38-19.93-5.71,19.93-4.72.04-7.26-26.37h4.46l5.31,21.44,5.75-21.44h4.72l5.34,21.33,5.34-21.33h4.5Z"/>
      <path d="M393.3,945.96h-10.72l-1.84,5.38h-4.38l9.17-26.37h4.86l9.17,26.37h-4.42l-1.84-5.38ZM392.12,942.44l-4.16-12.24-4.2,12.24h8.36Z"/>
      <path d="M434.27,951.34l-5.9-10.53h-3.21v10.53h-4.2v-26.33h8.84c1.96,0,3.63.35,4.99,1.06s2.38,1.65,3.06,2.84c.68,1.19,1.01,2.51,1.01,3.98,0,1.72-.49,3.28-1.46,4.68-.97,1.4-2.46,2.35-4.48,2.86l6.34,10.91h-5.01ZM425.17,937.36h4.64c1.57,0,2.76-.4,3.56-1.21s1.2-1.89,1.2-3.26-.39-2.43-1.18-3.2-1.98-1.16-3.57-1.16h-4.64v8.83Z"/>
      <path d="M477.21,926.62c2.05,1.07,3.64,2.61,4.75,4.62,1.12,2.01,1.68,4.35,1.68,7.03s-.56,5-1.68,6.97c-1.12,1.97-2.7,3.48-4.75,4.53-2.05,1.05-4.44,1.57-7.17,1.57h-8.36v-26.33h8.36c2.73,0,5.12.54,7.17,1.61ZM476.93,945.32c1.6-1.67,2.39-4.02,2.39-7.05s-.8-5.44-2.39-7.16c-1.6-1.72-3.89-2.58-6.89-2.58h-4.16v19.28h4.16c3,0,5.29-.83,6.89-2.5Z"/>
      <path d="M509.03,950.68c-1.38-.62-2.46-1.5-3.24-2.63s-1.18-2.46-1.18-3.98h4.5c.1,1.14.53,2.07,1.31,2.8.77.73,1.86,1.1,3.26,1.1s2.58-.36,3.39-1.08,1.22-1.65,1.22-2.79c0-.88-.25-1.6-.76-2.16-.5-.55-1.13-.98-1.88-1.29-.75-.3-1.79-.63-3.11-.98-1.67-.46-3.03-.92-4.07-1.38-1.04-.47-1.93-1.19-2.67-2.18-.74-.99-1.1-2.3-1.1-3.94,0-1.52.37-2.84,1.1-3.98.74-1.14,1.77-2.01,3.1-2.61,1.33-.61,2.86-.91,4.61-.91,2.48,0,4.51.64,6.1,1.91s2.46,3.02,2.63,5.25h-4.64c-.07-.96-.52-1.78-1.33-2.46-.81-.68-1.88-1.02-3.21-1.02-1.2,0-2.19.32-2.95.95-.76.63-1.14,1.54-1.14,2.73,0,.81.24,1.47.72,1.99s1.09.93,1.82,1.23c.74.3,1.74.63,3.02.98,1.69.48,3.08.96,4.15,1.44,1.07.48,1.98,1.22,2.73,2.22.75,1,1.12,2.33,1.12,4,0,1.34-.35,2.6-1.05,3.79-.7,1.19-1.72,2.14-3.06,2.86-1.34.72-2.92,1.08-4.73,1.08-1.72,0-3.27-.31-4.64-.93Z"/>
      <path d="M587.45,926.62c2.05,1.07,3.63,2.61,4.75,4.62,1.12,2.01,1.68,4.35,1.68,7.03s-.56,5-1.68,6.97c-1.12,1.97-2.7,3.48-4.75,4.53-2.05,1.05-4.44,1.57-7.17,1.57h-8.36v-26.33h8.36c2.73,0,5.12.54,7.17,1.61ZM587.17,945.32c1.6-1.67,2.39-4.02,2.39-7.05s-.8-5.44-2.39-7.16c-1.6-1.72-3.89-2.58-6.89-2.58h-4.16v19.28h4.16c3,0,5.29-.83,6.89-2.5Z"/>
      <path d="M619.67,925.01v26.33h-4.2v-26.33h4.2Z"/>
      <path d="M664.7,925.01l-9.62,26.33h-4.86l-9.65-26.33h4.5l7.59,21.9,7.63-21.9h4.42Z"/>
      <path d="M689.82,925.01v26.33h-4.2v-26.33h4.2Z"/>
      <path d="M733.82,951.34h-4.2l-12.64-19.66v19.66h-4.2v-26.37h4.2l12.64,19.62v-19.62h4.2v26.37Z"/>
      <path d="M760.97,925.01v26.33h-4.2v-26.33h4.2Z"/>
      <path d="M800.47,925.01v3.52h-6.82v22.81h-4.2v-22.81h-6.85v-3.52h17.87Z"/>
      <path d="M841.11,925.01l-8.47,16.78v9.55h-4.2v-9.55l-8.51-16.78h4.68l5.93,12.92,5.93-12.92h4.64Z"/>
    </g>
    <g>
      <path class="cls-24" d="M255.64,925.01v3.52h-6.82v22.81h-4.2v-22.81h-6.85v-3.52h17.87Z"/>
      <path class="cls-23" d="M282.41,949.88c-2-1.15-3.59-2.75-4.75-4.81-1.17-2.06-1.75-4.38-1.75-6.95s.58-4.89,1.75-6.93c1.17-2.05,2.75-3.64,4.75-4.79,2-1.15,4.19-1.72,6.58-1.72s4.61.57,6.61,1.72c2,1.15,3.58,2.75,4.73,4.79,1.15,2.05,1.73,4.36,1.73,6.93s-.58,4.89-1.73,6.95c-1.15,2.06-2.73,3.66-4.73,4.81-2,1.15-4.21,1.72-6.61,1.72s-4.58-.57-6.58-1.72ZM293.52,946.66c1.33-.8,2.36-1.93,3.11-3.41.75-1.48,1.12-3.19,1.12-5.13s-.37-3.65-1.12-5.11c-.75-1.46-1.79-2.59-3.11-3.37-1.33-.78-2.84-1.17-4.53-1.17s-3.21.39-4.53,1.17c-1.33.78-2.36,1.91-3.11,3.37-.75,1.46-1.12,3.17-1.12,5.11s.37,3.66,1.12,5.13c.75,1.48,1.79,2.61,3.11,3.41,1.33.8,2.84,1.19,4.53,1.19s3.21-.4,4.53-1.19Z"/>
      <path class="cls-19" d="M356.97,925.01l-7.59,26.33h-4.75l-5.38-19.93-5.71,19.93-4.72.04-7.26-26.37h4.46l5.31,21.44,5.75-21.44h4.72l5.34,21.33,5.34-21.33h4.5Z"/>
      <path class="cls-17" d="M393.3,945.96h-10.72l-1.84,5.38h-4.38l9.17-26.37h4.86l9.17,26.37h-4.42l-1.84-5.38ZM392.12,942.44l-4.16-12.24-4.2,12.24h8.36Z"/>
      <path class="cls-20" d="M434.27,951.34l-5.9-10.53h-3.21v10.53h-4.2v-26.33h8.84c1.96,0,3.63.35,4.99,1.06s2.38,1.65,3.06,2.84c.68,1.19,1.01,2.51,1.01,3.98,0,1.72-.49,3.28-1.46,4.68-.97,1.4-2.46,2.35-4.48,2.86l6.34,10.91h-5.01ZM425.17,937.36h4.64c1.57,0,2.76-.4,3.56-1.21s1.2-1.89,1.2-3.26-.39-2.43-1.18-3.2-1.98-1.16-3.57-1.16h-4.64v8.83Z"/>
      <path class="cls-18" d="M477.21,926.62c2.05,1.07,3.64,2.61,4.75,4.62,1.12,2.01,1.68,4.35,1.68,7.03s-.56,5-1.68,6.97c-1.12,1.97-2.7,3.48-4.75,4.53-2.05,1.05-4.44,1.57-7.17,1.57h-8.36v-26.33h8.36c2.73,0,5.12.54,7.17,1.61ZM476.93,945.32c1.6-1.67,2.39-4.02,2.39-7.05s-.8-5.44-2.39-7.16c-1.6-1.72-3.89-2.58-6.89-2.58h-4.16v19.28h4.16c3,0,5.29-.83,6.89-2.5Z"/>
      <path class="cls-22" d="M509.03,950.68c-1.38-.62-2.46-1.5-3.24-2.63s-1.18-2.46-1.18-3.98h4.5c.1,1.14.53,2.07,1.31,2.8.77.73,1.86,1.1,3.26,1.1s2.58-.36,3.39-1.08,1.22-1.65,1.22-2.79c0-.88-.25-1.6-.76-2.16-.5-.55-1.13-.98-1.88-1.29-.75-.3-1.79-.63-3.11-.98-1.67-.46-3.03-.92-4.07-1.38-1.04-.47-1.93-1.19-2.67-2.18-.74-.99-1.1-2.3-1.1-3.94,0-1.52.37-2.84,1.1-3.98.74-1.14,1.77-2.01,3.1-2.61,1.33-.61,2.86-.91,4.61-.91,2.48,0,4.51.64,6.1,1.91s2.46,3.02,2.63,5.25h-4.64c-.07-.96-.52-1.78-1.33-2.46-.81-.68-1.88-1.02-3.21-1.02-1.2,0-2.19.32-2.95.95-.76.63-1.14,1.54-1.14,2.73,0,.81.24,1.47.72,1.99s1.09.93,1.82,1.23c.74.3,1.74.63,3.02.98,1.69.48,3.08.96,4.15,1.44,1.07.48,1.98,1.22,2.73,2.22.75,1,1.12,2.33,1.12,4,0,1.34-.35,2.6-1.05,3.79-.7,1.19-1.72,2.14-3.06,2.86-1.34.72-2.92,1.08-4.73,1.08-1.72,0-3.27-.31-4.64-.93Z"/>
      <path class="cls-21" d="M587.45,926.62c2.05,1.07,3.63,2.61,4.75,4.62,1.12,2.01,1.68,4.35,1.68,7.03s-.56,5-1.68,6.97c-1.12,1.97-2.7,3.48-4.75,4.53-2.05,1.05-4.44,1.57-7.17,1.57h-8.36v-26.33h8.36c2.73,0,5.12.54,7.17,1.61ZM587.17,945.32c1.6-1.67,2.39-4.02,2.39-7.05s-.8-5.44-2.39-7.16c-1.6-1.72-3.89-2.58-6.89-2.58h-4.16v19.28h4.16c3,0,5.29-.83,6.89-2.5Z"/>
      <path class="cls-13" d="M619.67,925.01v26.33h-4.2v-26.33h4.2Z"/>
      <path class="cls-10" d="M664.7,925.01l-9.62,26.33h-4.86l-9.65-26.33h4.5l7.59,21.9,7.63-21.9h4.42Z"/>
      <path class="cls-5" d="M689.82,925.01v26.33h-4.2v-26.33h4.2Z"/>
      <path class="cls-12" d="M733.82,951.34h-4.2l-12.64-19.66v19.66h-4.2v-26.37h4.2l12.64,19.62v-19.62h4.2v26.37Z"/>
      <path class="cls-9" d="M760.97,925.01v26.33h-4.2v-26.33h4.2Z"/>
      <path class="cls-6" d="M800.47,925.01v3.52h-6.82v22.81h-4.2v-22.81h-6.85v-3.52h17.87Z"/>
      <path class="cls-8" d="M841.11,925.01l-8.47,16.78v9.55h-4.2v-9.55l-8.51-16.78h4.68l5.93,12.92,5.93-12.92h4.64Z"/>
    </g>
  </g>
  <g>
    <rect class="cls-11" x="864.06" y="936.41" width="108" height="2.01"/>
    <rect class="cls-7" x="104.95" y="936.41" width="108" height="2.01"/>
  </g>
</svg>